Coordinates
version=1
nRows=16
nColumns=40
inDegrees=yes

Units are S.I. units (second, meters, Newtons, ...)
If the header above contains a line with 'inDegrees', this indicates whether rotational values are in degrees (yes) or radians (no).

endheader
time	pelvis_tilt	pelvis_list	pelvis_rotation	pelvis_tx	pelvis_ty	pelvis_tz	hip_flexion_r	hip_adduction_r	hip_rotation_r	knee_angle_r	knee_angle_r_beta	ankle_angle_r	subtalar_angle_r	mtp_angle_r	hip_flexion_l	hip_adduction_l	hip_rotation_l	knee_angle_l	knee_angle_l_beta	ankle_angle_l	subtalar_angle_l	mtp_angle_l	lumbar_extension	lumbar_bending	lumbar_rotation	arm_flex_r	arm_add_r	arm_rot_r	elbow_flex_r	pro_sup_r	wrist_flex_r	wrist_dev_r	arm_flex_l	arm_add_l	arm_rot_l	elbow_flex_l	pro_sup_l	wrist_flex_l	wrist_dev_l
      4.57500000	    -18.77392658	      2.21106433	     -1.98734187	     -0.31593731	      0.89233630	     -1.03881018	     16.81793525	     -9.31965076	     -5.34864731	     81.93163139	      1.42997673	    -18.60272119	      0.00000000	      0.00000000	     53.10591337	      3.10600289	     -7.53532788	     63.68211717	      1.11146262	     19.74305323	      0.00000000	      0.00000000	     -2.74464348	     -4.16441583	      6.73448419	     89.75181236	    -23.49065300	     31.99250671	     46.60346271	     83.10185261	      0.00000000	      0.00000000	     89.79301711	    -18.62188047	     38.63873652	     43.69809297	     82.82376270	      0.00000000	      0.00000000
      4.58000000	    -18.79759996	      2.24801238	     -1.98179310	     -0.31615019	      0.89142993	     -1.03892127	     16.82968428	     -9.34900051	     -5.32234571	     81.96821698	      1.43061527	    -18.61951335	      0.00000000	      0.00000000	     53.24239096	      3.13220112	     -7.58286104	     63.87166204	      1.11477080	     19.83695624	      0.00000000	      0.00000000	     -2.77474737	     -4.20607074	      6.74272276	     89.75406705	    -23.44930199	     31.63979738	     46.52456980	     84.39230119	      0.00000000	      0.00000000	     89.79013252	    -18.54458351	     38.28650509	     43.67077055	     84.12001527	      0.00000000	      0.00000000
      4.58500000	    -18.84662139	      2.27525936	     -1.96946409	     -0.31638569	      0.89058617	     -1.03901342	     16.87888033	     -9.36044658	     -5.30387221	     82.00629311	      1.43127982	    -18.62624045	      0.00000000	      0.00000000	     53.39027560	      3.16450570	     -7.58615603	     64.02579648	      1.11746095	     19.91956487	      0.00000000	      0.00000000	     -2.79425848	     -4.22411990	      6.70163709	     89.75592131	    -23.36651162	     31.51133547	     46.53420497	     84.35969716	      0.00000000	      0.00000000	     89.79364366	    -18.58467679	     38.26368443	     43.71100669	     84.10007524	      0.00000000	      0.00000000
      4.59000000	    -18.90961819	      2.27504186	     -1.95802191	     -0.31656984	      0.88968373	     -1.03913097	     16.92090171	     -9.32763625	     -5.27997934	     81.99295115	      1.43104696	    -18.67779400	      0.00000000	      0.00000000	     53.57067517	      3.16062939	     -7.60719252	     64.22156742	      1.12087780	     19.99202038	      0.00000000	      0.00000000	     -2.78008831	     -4.22051368	      6.71067026	     89.76033742	    -23.43596208	     31.72294919	     46.61910694	     83.17647855	      0.00000000	      0.00000000	     89.79584335	    -18.52026682	     38.39515239	     43.70746341	     82.89039088	      0.00000000	      0.00000000
      4.59500000	    -18.95502367	      2.28840760	     -1.94243087	     -0.31667826	      0.88872314	     -1.03924066	     16.94030023	     -9.33877358	     -5.28195503	     82.02469354	      1.43160097	    -18.65112018	      0.00000000	      0.00000000	     53.72634427	      3.17710542	     -7.61787740	     64.44029385	      1.12469530	     20.09610928	      0.00000000	      0.00000000	     -2.77153164	     -4.22858762	      6.69800400	     89.76243841	    -23.43396498	     31.76078362	     46.63730884	     82.82068950	      0.00000000	      0.00000000	     89.79781549	    -18.50803791	     38.42676068	     43.72825397	     82.51692773	      0.00000000	      0.00000000
      4.60000000	    -19.06314439	      2.32738085	     -1.91557940	     -0.31693526	      0.88780364	     -1.03938160	     17.04789820	     -9.37066979	     -5.29220466	     82.04120368	      1.43188913	    -18.64210320	      0.00000000	      0.00000000	     53.94072179	      3.20264320	     -7.67231156	     64.59457576	      1.12738803	     20.16381813	      0.00000000	      0.00000000	     -2.73093425	     -4.25960334	      6.68409159	     89.76276218	    -23.39311799	     31.39449184	     46.64193865	     84.30569264	      0.00000000	      0.00000000	     89.79662196	    -18.47702382	     38.11088187	     43.72740214	     84.01531220	      0.00000000	      0.00000000
      4.60500000	    -19.05277511	      2.34414035	     -1.87726687	     -0.31726728	      0.88709078	     -1.03953522	     17.02963129	     -9.36485702	     -5.26668787	     82.05830337	      1.43218757	    -18.65365986	      0.00000000	      0.00000000	     54.04133390	      3.26983252	     -7.60663341	     64.75545630	      1.13019592	     20.20255286	      0.00000000	      0.00000000	     -2.82907736	     -4.27002269	      6.64074243	     89.76517595	    -23.35622114	     31.26196535	     46.65015421	     84.40703108	      0.00000000	      0.00000000	     89.79959886	    -18.39936331	     37.91604900	     43.66967768	     84.11376046	      0.00000000	      0.00000000
      4.61000000	    -19.06427279	      2.36021010	     -1.83785730	     -0.31737071	      0.88625494	     -1.03967061	     17.01022921	     -9.37241482	     -5.27297220	     82.07791424	      1.43252985	    -18.63267186	      0.00000000	      0.00000000	     54.15507611	      3.31016820	     -7.60443872	     64.94161811	      1.13344506	     20.26398927	      0.00000000	      0.00000000	     -2.87420788	     -4.28729594	      6.58451026	     89.76826264	    -23.33147079	     31.19652187	     46.66427304	     84.50938595	      0.00000000	      0.00000000	     89.80097274	    -18.39192401	     37.83049876	     43.67221352	     84.06204796	      0.00000000	      0.00000000
      4.61500000	    -19.16339480	      2.39493754	     -1.81559117	     -0.31756822	      0.88528533	     -1.03984332	     17.11102115	     -9.40727884	     -5.26130212	     82.09630970	      1.43285091	    -18.69913670	      0.00000000	      0.00000000	     54.36420116	      3.35244548	     -7.61961539	     65.10687070	      1.13632926	     20.33957319	      0.00000000	      0.00000000	     -2.82938275	     -4.30803411	      6.56795326	     89.76971729	    -23.31134542	     31.10679515	     46.75654817	     84.51067624	      0.00000000	      0.00000000	     89.80230805	    -18.40811960	     37.84161211	     43.72275759	     84.11182734	      0.00000000	      0.00000000
      4.62000000	    -19.18579222	      2.41718048	     -1.78802125	     -0.31769227	      0.88449236	     -1.04000833	     17.11830387	     -9.41786743	     -5.25259887	     82.11671835	      1.43320711	    -18.64092182	      0.00000000	      0.00000000	     54.47925806	      3.37774357	     -7.64943468	     65.28012182	      1.13935306	     20.40972273	      0.00000000	      0.00000000	     -2.86293657	     -4.32556488	      6.54499289	     89.77151721	    -23.30810449	     31.05787626	     46.74244143	     84.51798861	      0.00000000	      0.00000000	     89.80417682	    -18.37931595	     37.76316612	     43.73642860	     84.19457631	      0.00000000	      0.00000000
      4.62500000	    -19.23757443	      2.40728513	     -1.75714596	     -0.31778418	      0.88356681	     -1.04010890	     17.14731215	     -9.40294905	     -5.28107448	     82.13831116	      1.43358397	    -18.60012103	      0.00000000	      0.00000000	     54.64596733	      3.38569518	     -7.63692426	     65.49082640	      1.14303055	     20.48263225	      0.00000000	      0.00000000	     -2.85576946	     -4.30436172	      6.49295423	     89.77137634	    -23.24993618	     31.01432568	     46.70719484	     84.47240180	      0.00000000	      0.00000000	     89.80591517	    -18.38370469	     37.75091541	     43.71552288	     84.18622152	      0.00000000	      0.00000000
      4.63000000	    -19.24058499	      2.45068983	     -1.79343408	     -0.31787921	      0.88272852	     -1.04020398	     17.15130337	     -9.40461138	     -5.18739920	     82.19464518	      1.43456719	    -18.46957915	      0.00000000	      0.00000000	     54.74403873	      3.37605298	     -7.72337078	     65.66707544	      1.14610668	     20.53246065	      0.00000000	      0.00000000	     -2.89513495	     -4.32882999	      6.48711679	     89.77417256	    -23.15051006	     30.85689474	     46.66912206	     84.45551847	      0.00000000	      0.00000000	     89.80710057	    -18.39774883	     37.66620857	     43.71012296	     84.11622667	      0.00000000	      0.00000000
      4.63500000	    -19.34430351	      2.43680065	     -1.75477681	     -0.31798973	      0.88176890	     -1.04034072	     17.24523032	     -9.38003118	     -5.20059569	     82.20046020	      1.43466868	    -18.58855899	      0.00000000	      0.00000000	     54.95245463	      3.39114001	     -7.67145224	     65.85421391	      1.14937286	     20.61893429	      0.00000000	      0.00000000	     -2.82744961	     -4.30927403	      6.45990392	     89.77630809	    -23.23551537	     31.12862415	     46.78233636	     83.85846292	      0.00000000	      0.00000000	     89.81144783	    -18.46252852	     37.90643316	     43.86470069	     83.52317411	      0.00000000	      0.00000000
      4.64000000	    -19.32796620	      2.42882503	     -1.67752735	     -0.31818062	      0.88105540	     -1.04053934	     17.19998691	     -9.38764651	     -5.28173870	     82.20578238	      1.43476157	    -18.67384263	      0.00000000	      0.00000000	     55.03063216	      3.43688545	     -7.65942306	     66.01195074	      1.15212589	     20.72311553	      0.00000000	      0.00000000	     -2.93040800	     -4.28833798	      6.34984384	     89.77589223	    -23.11207774	     30.74137284	     46.75015650	     84.60207197	      0.00000000	      0.00000000	     89.81054773	    -18.43221499	     37.59533970	     43.81766397	     84.17623883	      0.00000000	      0.00000000
      4.64500000	    -19.36566886	      2.48866741	     -1.67512264	     -0.31821449	      0.88012322	     -1.04070573	     17.22727509	     -9.46318949	     -5.28015941	     82.21745168	      1.43496523	    -18.68867651	      0.00000000	      0.00000000	     55.15905995	      3.47115163	     -7.72798055	     66.18849123	      1.15520710	     20.79632977	      0.00000000	      0.00000000	     -2.93326998	     -4.34045617	      6.32585432	     89.77694335	    -23.00666212	     30.51886639	     46.65925753	     84.99041142	      0.00000000	      0.00000000	     89.80802303	    -18.39764270	     37.38366457	     43.76756513	     84.54811876	      0.00000000	      0.00000000
      4.65000000	    -19.42147464	      2.50919736	     -1.68106243	     -0.31823813	      0.87920092	     -1.04085411	     17.28868912	     -9.45431218	     -5.23036674	     82.26505461	      1.43579606	    -18.60725261	      0.00000000	      0.00000000	     55.29807266	      3.47040637	     -7.76166358	     66.35743596	      1.15815574	     20.92077820	      0.00000000	      0.00000000	     -2.90382902	     -4.34882515	      6.33496695	     89.77852944	    -23.06677325	     30.67920321	     46.75626919	     84.51500659	      0.00000000	      0.00000000	     89.81254959	    -18.43298617	     37.56881241	     43.83420156	     84.18747451	      0.00000000	      0.00000000
